<?xml version="1.0" encoding="utf-8"?>
<!-- Generator: Adobe Illustrator 23.0.2, SVG Export Plug-In . SVG Version: 6.00 Build 0)  -->
<svg version="1.1" id="Capa_1" xmlns="http://www.w3.org/2000/svg" xmlns:xlink="http://www.w3.org/1999/xlink" x="0px" y="0px"
	 viewBox="0 0 54.7 11.9" style="enable-background:new 0 0 54.7 11.9;" xml:space="preserve">
<style type="text/css">
	.st0{fill:#2266CC;}
	.st1{fill:#464646;}
	.st2{fill:#808080;}
</style>
<g>
	<path class="st0" d="M0,7l1.9-6.1H3L4.8,7h-1L3.3,5.5H1.5L1.1,7H0z M3.1,4.5L2.4,2.5L1.8,4.5H3.1z"/>
	<path class="st0" d="M7.7,3.8C7.5,3.7,7.3,3.7,7.1,3.7C6.8,3.7,6.7,3.8,6.5,4C6.3,4.2,6.2,4.4,6.2,4.7V7h-1v-3V2.7h1v0.3
		C6.3,2.8,6.6,2.8,7,2.7c0.3,0,0.7,0,1.1,0.1L7.7,3.8z"/>
	<path class="st0" d="M10.1,1.6v1h0.6v0.9h-0.6v2.3c0,0.2,0.1,0.3,0.1,0.3c0.1,0,0.3,0,0.6-0.1L10.9,7C10.6,7,10.3,7,10.1,7
		c-0.7,0-1-0.4-1-1.3V3.5H8.5V2.6h0.6v-1H10.1z"/>
	<path class="st0" d="M12.4,5.4c0,0.5,0.3,0.7,0.8,0.7c0.2,0,0.5-0.1,0.9-0.3l0.4,0.8c-0.3,0.2-0.8,0.4-1.3,0.4
		c-1.2,0-1.8-0.7-1.8-2.2c0-1.5,0.6-2.2,1.8-2.2c1.1,0,1.6,0.9,1.6,2.8H12.4z M13.8,4.4c0-0.6-0.2-0.9-0.6-0.8
		c-0.5,0-0.7,0.2-0.8,0.8H13.8z"/>
	<path class="st0" d="M18.2,2.9l-0.3,0.9c-0.4-0.2-0.7-0.3-1-0.3c-0.4,0-0.6,0.1-0.6,0.4c0,0.2,0.1,0.3,0.4,0.4L17,4.4
		c0.8,0.2,1.2,0.7,1.2,1.5c-0.1,0.8-0.6,1.2-1.4,1.2c-0.6,0-1.1-0.1-1.6-0.5l0.5-0.8c0.3,0.2,0.7,0.3,1,0.3c0.3,0,0.4-0.1,0.4-0.3
		c0-0.3-0.2-0.4-0.5-0.5l-0.4-0.2c-0.6-0.2-1-0.7-1-1.3c0.1-0.9,0.6-1.3,1.6-1.3C17.3,2.5,17.8,2.7,18.2,2.9z M18.2,2.9l-0.3,0.9
		c-0.4-0.2-0.7-0.3-1-0.3c-0.4,0-0.6,0.1-0.6,0.4c0,0.2,0.1,0.3,0.4,0.4L17,4.4c0.8,0.2,1.2,0.7,1.2,1.5c-0.1,0.8-0.6,1.2-1.4,1.2
		c-0.6,0-1.1-0.1-1.6-0.5l0.5-0.8c0.3,0.2,0.7,0.3,1,0.3c0.3,0,0.4-0.1,0.4-0.3c0-0.3-0.2-0.4-0.5-0.5l-0.4-0.2
		c-0.6-0.2-1-0.7-1-1.3c0.1-0.9,0.6-1.3,1.6-1.3C17.3,2.5,17.8,2.7,18.2,2.9z"/>
	<path class="st0" d="M20.4,2.6c1.1,0,1.7,0.5,1.7,1.6V7H20c-0.8,0-1.3-0.5-1.3-1.4s0.4-1.4,1.2-1.4c0.4,0,0.8,0,1.1,0.1V4
		c0-0.3-0.1-0.4-0.4-0.4l-1.3,0V2.7L20.4,2.6z M21,5.2c-0.4-0.1-0.7-0.1-1-0.1c-0.2,0-0.3,0.2-0.3,0.6c0,0.4,0.1,0.5,0.3,0.5h1V5.2z
		"/>
	<path class="st0" d="M24.9,7V4.6c0-0.7-0.2-1.1-0.5-1.1c-0.3,0-0.5,0.2-0.6,0.4c-0.2,0.2-0.2,0.5-0.2,0.9V7h-1V4V2.6h0.9l0,0.3
		c0.2-0.2,0.5-0.3,0.9-0.3c0.9,0,1.4,0.5,1.5,1.4v3L24.9,7z"/>
	<path class="st0" d="M29.8,4.8c0,1.5-0.6,2.2-1.7,2.2c-1.1,0-1.7-0.7-1.7-2.2c0-1.5,0.6-2.2,1.7-2.2C29.2,2.6,29.8,3.4,29.8,4.8z
		 M28.1,3.6c-0.5,0-0.8,0.4-0.8,1.3c0,0.9,0.3,1.3,0.8,1.3c0.5,0,0.7-0.4,0.7-1.3C28.8,4,28.6,3.6,28.1,3.6z"/>
	<path class="st0" d="M33.2,2.9l-0.3,0.9c-0.4-0.2-0.7-0.3-1-0.3c-0.4,0-0.6,0.1-0.6,0.4c0,0.2,0.1,0.3,0.4,0.4L32,4.4
		c0.8,0.2,1.2,0.7,1.2,1.5c-0.1,0.8-0.6,1.2-1.4,1.2c-0.6,0-1.1-0.1-1.6-0.5l0.5-0.8c0.3,0.2,0.7,0.3,1,0.3c0.3,0,0.4-0.1,0.4-0.3
		c0-0.3-0.2-0.4-0.5-0.5l-0.4-0.2c-0.6-0.2-1-0.7-1-1.3c0.1-0.9,0.6-1.3,1.6-1.3C32.3,2.5,32.7,2.7,33.2,2.9z M33.2,2.9l-0.3,0.9
		c-0.4-0.2-0.7-0.3-1-0.3c-0.4,0-0.6,0.1-0.6,0.4c0,0.2,0.1,0.3,0.4,0.4L32,4.4c0.8,0.2,1.2,0.7,1.2,1.5c-0.1,0.8-0.6,1.2-1.4,1.2
		c-0.6,0-1.1-0.1-1.6-0.5l0.5-0.8c0.3,0.2,0.7,0.3,1,0.3c0.3,0,0.4-0.1,0.4-0.3c0-0.3-0.2-0.4-0.5-0.5l-0.4-0.2
		c-0.6-0.2-1-0.7-1-1.3c0.1-0.9,0.6-1.3,1.6-1.3C32.3,2.5,32.7,2.7,33.2,2.9z"/>
	<path class="st1" d="M34.7,6v1h-1V6H34.7z"/>
	<path class="st1" d="M40.2,6.1c-0.6,0.7-1.3,1.1-2.1,1.1c-1.8,0-2.7-1.1-2.7-3.3c0-2.2,0.9-3.3,2.7-3.3c0.8,0,1.6,0.4,2.1,1.3
		l-0.9,0.9c-0.5-0.5-0.9-0.7-1.2-0.7c-0.8,0-1.2,0.6-1.2,1.9c0,1.3,0.4,1.9,1.2,1.9c0.3,0,0.7-0.2,1.2-0.7L40.2,6.1z"/>
	<path class="st1" d="M45.9,3.8c0,2.2-0.9,3.3-2.6,3.3c-1.7,0-2.6-1.1-2.6-3.3c0-2.2,0.9-3.3,2.6-3.3C45,0.5,45.9,1.6,45.9,3.8z
		 M43.3,1.9c-0.8,0-1.2,0.7-1.2,1.9s0.4,1.9,1.2,1.9c0.7,0,1.1-0.6,1.1-1.9C44.4,2.5,44.1,1.9,43.3,1.9z"/>
	<path class="st1" d="M51.3,3.8v3.3h-1.5V3.8c-0.1-1.3-0.4-1.9-0.9-1.9c-0.3,0-0.5,0.2-0.7,0.5C48.1,2.7,48,3.1,48,3.7v3.4h-1.5V0.5
		H48v0.1l0.9,0c0.8,0,1.4,0.3,1.7,0.9c0.3-0.6,0.9-0.9,1.8-0.9c0.5,0,1,0.1,1.5,0.5c0.6,0.5,0.8,1.5,0.7,2.9v3.3h-1.5V3.8
		c0-0.4,0-0.9-0.1-1.3c-0.1-0.4-0.3-0.6-0.6-0.7C51.8,1.9,51.5,2.6,51.3,3.8z"/>
</g>
<g>
	<path class="st2" d="M13.6,8.9v1.9c0,0.3-0.1,0.5-0.3,0.7s-0.4,0.3-0.7,0.3l-0.1,0c-0.3,0-0.6-0.1-0.7-0.3s-0.3-0.4-0.3-0.7V8.9
		h0.4v1.9c0,0.2,0.1,0.4,0.2,0.5s0.3,0.2,0.5,0.2c0.2,0,0.4-0.1,0.5-0.2s0.2-0.3,0.2-0.5V8.9H13.6z"/>
	<path class="st2" d="M23.6,11.8h-0.4l-1.4-2.2v2.2h-0.4V8.9h0.4l1.4,2.2V8.9h0.4V11.8z"/>
	<path class="st2" d="M33.5,11.4c-0.1,0.1-0.2,0.2-0.4,0.3s-0.4,0.1-0.6,0.1c-0.2,0-0.4-0.1-0.6-0.2s-0.3-0.3-0.4-0.5
		s-0.1-0.4-0.2-0.7v-0.2c0-0.4,0.1-0.8,0.3-1s0.5-0.4,0.8-0.4c0.3,0,0.5,0.1,0.7,0.2s0.3,0.4,0.3,0.6h-0.4c-0.1-0.4-0.3-0.6-0.7-0.6
		c-0.3,0-0.4,0.1-0.6,0.3s-0.2,0.4-0.2,0.8v0.2c0,0.3,0.1,0.6,0.2,0.8s0.3,0.3,0.6,0.3c0.1,0,0.3,0,0.4,0s0.2-0.1,0.3-0.2v-0.6h-0.7
		v-0.3h1V11.4z"/>
	<path class="st2" d="M42.2,10.5c-0.3-0.1-0.6-0.2-0.7-0.3s-0.2-0.3-0.2-0.5c0-0.2,0.1-0.4,0.3-0.6s0.4-0.2,0.7-0.2
		c0.2,0,0.4,0,0.5,0.1s0.3,0.2,0.4,0.3s0.1,0.3,0.1,0.4h-0.4c0-0.2-0.1-0.3-0.2-0.4s-0.3-0.1-0.5-0.1c-0.2,0-0.3,0-0.4,0.1
		c-0.1,0.1-0.2,0.2-0.2,0.3c0,0.1,0,0.2,0.1,0.3c0.1,0.1,0.3,0.2,0.5,0.2s0.4,0.1,0.6,0.2s0.2,0.2,0.3,0.3s0.1,0.2,0.1,0.4
		c0,0.2-0.1,0.4-0.3,0.6s-0.4,0.2-0.7,0.2c-0.2,0-0.4,0-0.5-0.1s-0.3-0.2-0.4-0.3s-0.1-0.3-0.1-0.4h0.4c0,0.2,0.1,0.3,0.2,0.4
		s0.3,0.1,0.5,0.1c0.2,0,0.3,0,0.5-0.1s0.2-0.2,0.2-0.3s0-0.2-0.1-0.3S42.5,10.6,42.2,10.5z"/>
</g>
</svg>
